<?xml version="1.0" encoding="UTF-8" standalone="no"?>
<!-- Generator: Adobe Illustrator 19.0.0, SVG Export Plug-In . SVG Version: 6.00 Build 0)  -->

<svg
   xmlns:dc="http://purl.org/dc/elements/1.1/"
   xmlns:cc="http://creativecommons.org/ns#"
   xmlns:rdf="http://www.w3.org/1999/02/22-rdf-syntax-ns#"
   xmlns:svg="http://www.w3.org/2000/svg"
   xmlns="http://www.w3.org/2000/svg"
   xmlns:sodipodi="http://sodipodi.sourceforge.net/DTD/sodipodi-0.dtd"
   xmlns:inkscape="http://www.inkscape.org/namespaces/inkscape"
   version="1.1"
   id="Layer_1"
   x="0px"
   y="0px"
   viewBox="0 0 563.20001 563.20001"
   xml:space="preserve"
   sodipodi:docname="title_logo.svg"
   inkscape:version="0.92.4 (5da689c313, 2019-01-14)"
   width="563.20001"
   height="563.20001"><metadata
   id="metadata45"><rdf:RDF><cc:Work
       rdf:about=""><dc:format>image/svg+xml</dc:format><dc:type
         rdf:resource="http://purl.org/dc/dcmitype/StillImage" /><dc:title></dc:title></cc:Work></rdf:RDF></metadata><defs
   id="defs43" /><sodipodi:namedview
   pagecolor="#ffffff"
   bordercolor="#666666"
   borderopacity="1"
   objecttolerance="10"
   gridtolerance="10"
   guidetolerance="10"
   inkscape:pageopacity="0"
   inkscape:pageshadow="2"
   inkscape:window-width="1920"
   inkscape:window-height="986"
   id="namedview41"
   showgrid="false"
   inkscape:zoom="0.4609375"
   inkscape:cx="-5.857621"
   inkscape:cy="281.60001"
   inkscape:window-x="-11"
   inkscape:window-y="-11"
   inkscape:window-maximized="1"
   inkscape:current-layer="Layer_1"
   fit-margin-top="0"
   fit-margin-left="0"
   fit-margin-right="0"
   fit-margin-bottom="0" />



<path
   style="opacity:1;fill:#ffffff;fill-opacity:1;fill-rule:evenodd;stroke:none;stroke-width:10.82167721;stroke-linecap:round;stroke-linejoin:bevel;stroke-miterlimit:4;stroke-dasharray:none;stroke-dashoffset:0;stroke-opacity:1;paint-order:fill markers stroke"
   id="path854"
   sodipodi:type="arc"
   sodipodi:cx="281.60001"
   sodipodi:cy="281.60001"
   sodipodi:rx="281.60001"
   sodipodi:ry="281.60001"
   sodipodi:start="3.9306735"
   sodipodi:end="3.8196356"
   sodipodi:open="true"
   d="M 83.213381,81.746784 A 281.60001,281.60001 0 0 1 475.86983,77.742706 281.60001,281.60001 0 0 1 490.7709,470.13674 281.60001,281.60001 0 0 1 98.941639,495.92332 281.60001,281.60001 0 0 1 62.289412,104.96075" /><g
   id="g860"
   transform="translate(25.600006,25.600006)"><path
     id="path2"
     d="M 113.47,309.408 95.648,375.94 30.509,377.318 C 11.042,341.211 0,299.9 0,256 0,213.549 10.324,173.517 28.624,138.268 h 0.014 l 57.992,10.632 25.404,57.644 c -5.317,15.501 -8.215,32.141 -8.215,49.456 0.002,18.792 3.406,36.797 9.651,53.408 z"
     style="fill:#fbbb00"
     inkscape:connector-curvature="0" /><path
     id="path4"
     d="m 507.527,208.176 c 2.94,15.486 4.473,31.479 4.473,47.824 0,18.328 -1.927,36.206 -5.598,53.451 -12.462,58.683 -45.025,109.925 -90.134,146.187 l -0.014,-0.014 -73.044,-3.727 -10.338,-64.535 c 29.932,-17.554 53.324,-45.025 65.646,-77.911 H 261.628 V 208.176 h 138.887 z"
     style="fill:#518ef8"
     inkscape:connector-curvature="0" /><path
     id="path6"
     d="m 416.253,455.624 0.014,0.014 C 372.396,490.901 316.666,512 256,512 158.509,512 73.748,457.509 30.509,377.319 l 82.961,-67.91 c 21.619,57.698 77.278,98.771 142.53,98.771 28.047,0 54.323,-7.582 76.87,-20.818 z"
     style="fill:#28b446"
     inkscape:connector-curvature="0" /><path
     id="path8"
     d="m 419.404,58.936 -82.933,67.896 C 313.136,112.246 285.552,103.82 256,103.82 c -66.729,0 -123.429,42.957 -143.965,102.724 L 28.638,138.268 H 28.624 C 71.23,56.123 157.06,0 256,0 318.115,0 375.068,22.126 419.404,58.936 Z"
     style="fill:#f14336"
     inkscape:connector-curvature="0" /></g>
<g
   id="g10"
   transform="translate(25.600006,25.600006)">
</g>
<g
   id="g12"
   transform="translate(25.600006,25.600006)">
</g>
<g
   id="g14"
   transform="translate(25.600006,25.600006)">
</g>
<g
   id="g16"
   transform="translate(25.600006,25.600006)">
</g>
<g
   id="g18"
   transform="translate(25.600006,25.600006)">
</g>
<g
   id="g20"
   transform="translate(25.600006,25.600006)">
</g>
<g
   id="g22"
   transform="translate(25.600006,25.600006)">
</g>
<g
   id="g24"
   transform="translate(25.600006,25.600006)">
</g>
<g
   id="g26"
   transform="translate(25.600006,25.600006)">
</g>
<g
   id="g28"
   transform="translate(25.600006,25.600006)">
</g>
<g
   id="g30"
   transform="translate(25.600006,25.600006)">
</g>
<g
   id="g32"
   transform="translate(25.600006,25.600006)">
</g>
<g
   id="g34"
   transform="translate(25.600006,25.600006)">
</g>
<g
   id="g36"
   transform="translate(25.600006,25.600006)">
</g>
<g
   id="g38"
   transform="translate(25.600006,25.600006)">
</g>
</svg>